<?xml version="1.0" standalone="no"?>
<!DOCTYPE svg PUBLIC "-//W3C//DTD SVG 20010904//EN"
 "http://www.w3.org/TR/2001/REC-SVG-20010904/DTD/svg10.dtd">
<svg version="1.0" xmlns="http://www.w3.org/2000/svg"
 width="1280.000000pt" height="640.000000pt" viewBox="0 0 1280.000000 640.000000"
 preserveAspectRatio="xMidYMid meet">
<metadata>
Created by potrace 1.15, written by Peter Selinger 2001-2017
</metadata>
<g transform="translate(0.000000,640.000000) scale(0.100000,-0.100000)"
fill="#000000" stroke="none">
<path d="M5460 5639 c-658 -35 -1209 -144 -1678 -330 -149 -60 -318 -143 -352
-174 -14 -12 -124 -84 -245 -160 -381 -238 -608 -406 -818 -605 -32 -30 -65
-55 -72 -55 -20 0 -224 -237 -225 -260 0 -13 -3 -16 -8 -8 -9 14 -192 -151
-192 -173 0 -9 -5 -12 -11 -9 -6 4 -13 -2 -16 -14 -3 -12 -13 -21 -24 -21 -12
0 -19 -7 -19 -20 0 -12 -5 -17 -14 -14 -8 3 -16 -3 -19 -15 -3 -12 -12 -21
-20 -21 -8 0 -17 -9 -20 -21 -3 -12 -10 -18 -17 -14 -7 4 -14 -2 -17 -14 -3
-12 -12 -21 -19 -21 -8 0 -14 -7 -14 -15 0 -9 -8 -19 -17 -22 -9 -4 -30 -22
-46 -40 l-29 -33 -122 0 c-66 0 -137 -5 -156 -10 -35 -10 -129 -94 -118 -105
3 -4 57 -13 119 -21 63 -8 122 -17 131 -20 14 -4 8 -23 -42 -127 -33 -67 -84
-196 -114 -285 -77 -228 -132 -351 -160 -356 -11 -3 -93 -12 -181 -21 -247
-25 -399 -65 -514 -136 l-34 -20 8 -92 c5 -51 9 -127 9 -171 1 -73 3 -80 27
-98 23 -18 121 -39 292 -63 43 -6 47 -8 46 -33 -1 -15 -4 -38 -8 -52 -7 -24
-10 -25 -120 -30 -148 -7 -151 -11 -85 -115 l49 -77 95 7 c64 4 99 11 106 21
18 23 77 17 103 -10 36 -38 83 -56 148 -56 53 0 65 4 138 52 l79 52 105 -3
c116 -3 146 -12 138 -42 -8 -30 11 -22 29 12 16 31 16 31 85 27 l70 -4 62 -67
c35 -37 67 -68 72 -68 6 -1 68 -4 139 -8 l129 -6 21 -81 c24 -88 87 -228 137
-302 18 -26 66 -82 108 -125 l74 -77 -64 0 c-35 0 -287 -7 -559 -15 -1185 -34
-1790 -75 -1802 -120 -14 -50 725 -95 2137 -130 1322 -32 2066 -39 4255 -39
2189 0 2933 7 4255 39 1403 35 2140 79 2140 129 0 37 -446 73 -1314 106 -140
5 -255 11 -257 12 -1 2 31 30 71 62 211 166 346 432 362 713 l6 103 72 0 c79
0 85 -3 138 -87 37 -58 50 -55 75 14 34 95 32 92 88 110 45 14 58 14 78 4 51
-28 89 27 68 97 -6 20 -10 37 -9 38 1 1 71 7 155 12 181 12 195 18 216 95 25
89 39 232 26 257 -22 40 -170 98 -414 160 -81 22 -151 41 -154 44 -7 8 -33
168 -28 174 2 2 16 -13 31 -32 15 -20 31 -36 36 -36 22 0 0 299 -25 352 -18
37 -35 48 -124 79 -28 10 -69 32 -90 49 -20 18 -61 45 -90 60 -35 19 -73 51
-108 94 -107 129 -357 314 -571 420 -128 64 -283 126 -463 184 -108 35 -178
53 -385 102 -80 19 -321 59 -490 81 -55 7 -93 17 -98 25 -6 10 -32 14 -95 14
-54 0 -93 5 -100 12 -9 9 -17 9 -36 -2 -21 -11 -61 -10 -243 3 -120 8 -227 15
-238 15 -11 0 -48 5 -83 11 -35 7 -67 9 -71 6 -5 -2 -18 22 -30 55 -31 85 -64
121 -110 119 -85 -2 -101 9 -164 111 -82 134 -365 612 -409 690 -20 36 -45 73
-55 82 -53 46 -620 189 -923 232 -456 64 -1096 91 -1580 65z m3185 -1229 c13
-15 16 -30 12 -62 -6 -50 -25 -103 -33 -95 -8 8 -33 125 -34 155 0 28 30 30
55 2z m-4200 -2745 c62 1 109 5 117 12 10 9 244 10 928 3 2620 -26 3446 -31
3473 -21 17 7 110 11 226 11 l197 0 38 -45 c54 -65 168 -148 268 -195 47 -22
90 -40 96 -40 5 0 37 -38 70 -84 34 -46 96 -116 139 -156 l78 -73 -385 7
c-1546 26 -4912 32 -5720 9 l-235 -6 59 64 c66 73 122 151 159 225 16 31 36
55 54 63 57 26 139 98 206 183 l69 87 30 -22 c26 -19 42 -22 133 -22z"/>
</g>
</svg>
